<svg xmlns="http://www.w3.org/2000/svg" xmlns:xlink="http://www.w3.org/1999/xlink" width="101" height="101" viewBox="0 0 101 101">
  <defs>
    <linearGradient id="linear-gradient" x1="0.5" x2="0.5" y2="1" gradientUnits="objectBoundingBox">
      <stop offset="0" stop-color="#f8534f"/>
      <stop offset="1" stop-color="#f50"/>
    </linearGradient>
  </defs>
  <g id="ofood" transform="translate(-1559 -364)">
    <g id="Rectangle_184" data-name="Rectangle 184" transform="translate(1559 364)" stroke="#fff" stroke-width="1" fill="url(#linear-gradient)">
      <rect width="101" height="101" rx="32" stroke="none"/>
      <rect x="0.5" y="0.5" width="100" height="100" rx="31.5" fill="none"/>
    </g>
    <path id="utensils-solid" d="M184.486,34.216,182.78,55.265a2.728,2.728,0,0,0,2.718,2.957h6.368a2.723,2.723,0,0,0,2.729-2.729V2.729A2.73,2.73,0,0,0,191.866,0C182.484,0,166.689,20.3,184.486,34.216Z" transform="translate(1439.084 385.446)" fill="#fff"/>
    <path id="utensils-solid-2" data-name="utensils-solid" d="M23.641,1.727c.091.534,1.831,10.746,1.831,14.646,0,5.947-3.161,10.189-7.835,11.895L19.1,55.344a2.736,2.736,0,0,1-2.729,2.877H9.1a2.736,2.736,0,0,1-2.729-2.877L7.835,28.268C3.15,26.563,0,22.31,0,16.374,0,12.462,1.74,2.262,1.831,1.727c.364-2.308,5.151-2.343,5.447.125V17.909c.148.387,1.717.364,1.819,0,.159-2.877.9-15.829.91-16.125.375-2.365,5.083-2.365,5.447,0,.023.307.751,13.248.91,16.125.1.364,1.683.387,1.819,0V1.852C18.479-.6,23.277-.581,23.641,1.727Z" transform="translate(1584.07 385.447)" fill="#fff"/>
  </g>
</svg>
