<svg xmlns="http://www.w3.org/2000/svg" width="101" height="101" viewBox="0 0 101 101">
  <g id="Group_336" data-name="Group 336" transform="translate(-1127 -1169)">
    <g id="Group_222" data-name="Group 222" transform="translate(1127 1169)">
      <g id="Rectangle_293" data-name="Rectangle 293" fill="#ff6f00" stroke="#fff" stroke-width="1">
        <rect width="101" height="101" rx="32" stroke="none"/>
        <rect x="0.5" y="0.5" width="100" height="100" rx="31.5" fill="none"/>
      </g>
      <path id="tablets-solid" d="M18.95,54.251A19.105,19.105,0,0,0,.012,70.205a.982.982,0,0,0,.983,1.1H36.918a.982.982,0,0,0,.983-1.1A19.127,19.127,0,0,0,18.95,54.251ZM36.906,75.1H.995a.982.982,0,0,0-.983,1.1A19.105,19.105,0,0,0,18.95,92.152,19.105,19.105,0,0,0,37.889,76.2.982.982,0,0,0,36.906,75.1Z" transform="translate(13.432 -7.491)" fill="#fff"/>
      <path id="tablets-solid-2" data-name="tablets-solid" d="M122.83,5.506a18.922,18.922,0,0,0-24.505-1.9.965.965,0,0,0-.095,1.457l25.026,25.038a.964.964,0,0,0,1.457-.095A18.907,18.907,0,0,0,122.83,5.506ZM95.542,7.769a.964.964,0,0,0-1.457.095,18.881,18.881,0,0,0,26.388,26.388.965.965,0,0,0,.095-1.457Z" transform="translate(-40.792 16.49)" fill="#fff"/>
    </g>
  </g>
</svg>
