<svg xmlns="http://www.w3.org/2000/svg" width="101" height="101" viewBox="0 0 101 101">
  <g id="Group_321" data-name="Group 321" transform="translate(-40 -806)">
    <g id="Group_320" data-name="Group 320" transform="translate(40 806)">
      <g id="Group_271" data-name="Group 271" transform="translate(0 0)">
        <g id="Rectangle_310" data-name="Rectangle 310" stroke="#fff" stroke-width="1">
          <rect width="101" height="101" rx="32" stroke="none"/>
          <rect x="0.5" y="0.5" width="100" height="100" rx="31.5" fill="none"/>
        </g>
        <g id="Group_161" data-name="Group 161" transform="translate(9.306 60.82) rotate(-90)">
          <path id="Exclusion_1" data-name="Exclusion 1" d="M9.041,18.083A9.117,9.117,0,0,1,7.217,17.9a8.985,8.985,0,0,1-3.231-1.36A9.066,9.066,0,0,1,.71,12.561a8.992,8.992,0,0,1-.526-1.7,9.129,9.129,0,0,1,0-3.644,8.98,8.98,0,0,1,1.36-3.233A9.066,9.066,0,0,1,5.522.71a8.985,8.985,0,0,1,1.7-.527,9.124,9.124,0,0,1,3.644,0A8.981,8.981,0,0,1,14.1,1.544a9.047,9.047,0,0,1-1.536,15.829,9,9,0,0,1-1.7.527A9.1,9.1,0,0,1,9.041,18.083ZM9.076,4.018a5.058,5.058,0,1,0,5.058,5.058A5.063,5.063,0,0,0,9.076,4.018Z" transform="translate(0 3.003)" fill="#fff"/>
          <path id="nfc" d="M8.6,16.468a.948.948,0,0,1-.935-1.11,20.191,20.191,0,0,0,.294-3.226A19.911,19.911,0,0,0,4.751,1.464.948.948,0,1,1,6.34.431,21.8,21.8,0,0,1,9.858,12.122v.019a22.075,22.075,0,0,1-.322,3.541.948.948,0,0,1-.933.786ZM6.34,23.832a21.748,21.748,0,0,0,1.876-3.575.948.948,0,0,0-1.753-.721A19.84,19.84,0,0,1,4.751,22.8.948.948,0,1,0,6.34,23.832Zm-4.6-2.47A16.919,16.919,0,0,0,4.6,12.144q0-.012,0-.025A16.918,16.918,0,0,0,1.735,2.9.948.948,0,1,0,.161,3.956,15.027,15.027,0,0,1,2.7,12.132,15.027,15.027,0,0,1,.161,20.307a.948.948,0,0,0,1.575,1.055Z" transform="translate(20.141 0)" fill="#fff"/>
        </g>
        <path id="Path_4076" data-name="Path 4076" d="M18.128-37.1H15.161a.627.627,0,0,0-.642.421l-3.588,8.526L7.343-36.679A.627.627,0,0,0,6.7-37.1H3.734a.5.5,0,0,0-.554.554v14.394a.5.5,0,0,0,.554.554H6.17a.5.5,0,0,0,.554-.554V-31.1l2.812,6.669a.627.627,0,0,0,.642.421h1.506a.627.627,0,0,0,.642-.421L15.138-31.1v8.95a.5.5,0,0,0,.554.554h2.436a.5.5,0,0,0,.554-.554V-36.546A.5.5,0,0,0,18.128-37.1ZM30.086-25.009h-5.2v-2.768h4.54a.5.5,0,0,0,.554-.554v-2.215a.5.5,0,0,0-.554-.554h-4.54V-33.69h5.093a.5.5,0,0,0,.554-.554v-2.3a.5.5,0,0,0-.554-.554H21.893a.5.5,0,0,0-.554.554v14.394a.5.5,0,0,0,.554.554h8.194a.5.5,0,0,0,.554-.554v-2.3A.5.5,0,0,0,30.086-25.009Zm10.74-11.538v8.083l-5.293-8.282a.769.769,0,0,0-.687-.354H33.187a.5.5,0,0,0-.554.554v14.394a.5.5,0,0,0,.554.554h2.436a.5.5,0,0,0,.554-.554v-8.083l5.293,8.282a.769.769,0,0,0,.687.354h1.661a.5.5,0,0,0,.554-.554V-36.546a.5.5,0,0,0-.554-.554H41.38A.5.5,0,0,0,40.827-36.546ZM52.564-21.288c3.189,0,5.758-1.772,5.758-5.093V-36.546a.5.5,0,0,0-.554-.554H55.332a.5.5,0,0,0-.554.554v9.855c0,1.174-.554,1.949-2.215,1.949s-2.215-.775-2.215-1.949v-9.855A.5.5,0,0,0,49.8-37.1H47.36a.5.5,0,0,0-.554.554v10.165C46.806-23.06,49.375-21.288,52.564-21.288Z" transform="translate(31.575 81.349)" fill="#fff"/>
      </g>
    </g>
  </g>
</svg>
