<svg xmlns="http://www.w3.org/2000/svg" width="46" height="46.028" viewBox="0 0 46 46.028">
  <path id="Exclusion_1" data-name="Exclusion 1" d="M1733-1124.97a23.179,23.179,0,0,1-4.641-.469,22.9,22.9,0,0,1-4.313-1.339,23,23,0,0,1-3.907-2.122,23.183,23.183,0,0,1-3.4-2.81,23.168,23.168,0,0,1-2.809-3.406,23.051,23.051,0,0,1-2.121-3.909,22.894,22.894,0,0,1-1.339-4.321,23.176,23.176,0,0,1-.468-4.638,23.173,23.173,0,0,1,.468-4.638,22.886,22.886,0,0,1,1.339-4.321,23.028,23.028,0,0,1,2.121-3.909,23.162,23.162,0,0,1,2.809-3.406,23.168,23.168,0,0,1,3.4-2.81,22.986,22.986,0,0,1,3.907-2.122,22.867,22.867,0,0,1,4.318-1.34A23.14,23.14,0,0,1,1733-1171a23.136,23.136,0,0,1,4.635.468,22.863,22.863,0,0,1,4.318,1.34,22.966,22.966,0,0,1,3.907,2.122,23.15,23.15,0,0,1,3.4,2.81,23.162,23.162,0,0,1,2.809,3.406,23.037,23.037,0,0,1,2.121,3.909,22.949,22.949,0,0,1,1.339,4.321,23.21,23.21,0,0,1,.467,4.638,23.211,23.211,0,0,1-.467,4.638,22.957,22.957,0,0,1-1.339,4.321,23.06,23.06,0,0,1-2.121,3.909,23.168,23.168,0,0,1-2.809,3.406,23.158,23.158,0,0,1-3.4,2.81,22.992,22.992,0,0,1-3.907,2.122,22.881,22.881,0,0,1-4.318,1.34A23.153,23.153,0,0,1,1733-1124.97Zm.088-35.8a12.884,12.884,0,0,0-12.866,12.874,12.884,12.884,0,0,0,12.866,12.874,12.884,12.884,0,0,0,12.866-12.874A12.885,12.885,0,0,0,1733.089-1160.769Z" transform="translate(-1710.001 1170.998)" fill="#fff"/>
</svg>
