<svg xmlns="http://www.w3.org/2000/svg" width="101" height="101" viewBox="0 0 101 101">
  <g id="ddd" transform="translate(-1426 -1169)">
    <g id="Rectangle_294" data-name="Rectangle 294" transform="translate(1426 1169)" fill="#00bdee" stroke="#fff" stroke-width="1">
      <rect width="101" height="101" rx="32" stroke="none"/>
      <rect x="0.5" y="0.5" width="100" height="100" rx="31.5" fill="none"/>
    </g>
    <path id="user-md-solid" d="M42.453,24.66a12.33,12.33,0,1,0-12.33-12.33A12.329,12.329,0,0,0,42.453,24.66Z" transform="translate(1449.211 1182.876)" fill="#fff"/>
    <path id="user-md-solid-2" data-name="user-md-solid" d="M10.018,103.6a2.312,2.312,0,1,0,2.312-2.312A2.306,2.306,0,0,0,10.018,103.6ZM30.825,90.557v4.72a7.718,7.718,0,0,1,6.165,7.552v4.017a1.546,1.546,0,0,1-1.243,1.512l-3.1.617a.767.767,0,0,1-.905-.607l-.3-1.512a.762.762,0,0,1,.607-.905l1.859-.376V102.83c0-6.049-9.248-6.271-9.248.183v2.572l1.859.376a.782.782,0,0,1,.607.905l-.3,1.512a.782.782,0,0,1-.905.607l-3.005-.4a1.539,1.539,0,0,1-1.329-1.532V102.83a7.726,7.726,0,0,1,6.165-7.552V90.923c-.212.067-.424.106-.636.183a16.665,16.665,0,0,1-11.059,0,10.645,10.645,0,0,0-2.177-.5v7.86a5.394,5.394,0,1,1-3.083,0V90.721A12.913,12.913,0,0,0,0,103.446v4.316a4.321,4.321,0,0,0,4.316,4.316H38.84a4.321,4.321,0,0,0,4.316-4.316v-4.316a12.927,12.927,0,0,0-12.33-12.889Z" transform="translate(1470.086 1120.119)" fill="#fff"/>
  </g>
</svg>
